<?xml version="1.0" standalone="no"?>
<!DOCTYPE svg PUBLIC "-//W3C//DTD SVG 20010904//EN"
 "http://www.w3.org/TR/2001/REC-SVG-20010904/DTD/svg10.dtd">
<svg version="1.0" xmlns="http://www.w3.org/2000/svg"
 width="920.000000pt" height="920.000000pt" viewBox="0 0 920.000000 920.000000"
 preserveAspectRatio="xMidYMid meet">
<metadata>
Created by potrace 1.14, written by Peter Selinger 2001-2017
</metadata>
<g transform="translate(0.000000,920.000000) scale(0.100000,-0.100000)"
fill="#000000" stroke="none">
<path d="M820 7052 c0 -5 13 -47 29 -95 25 -74 44 -106 126 -212 l96 -125 44
0 c25 0 45 -3 46 -7 0 -5 10 -47 22 -96 19 -75 29 -96 77 -156 58 -72 76 -81
185 -95 99 -13 539 -32 805 -35 296 -4 266 3 262 -62 -3 -52 -2 -58 28 -82 17
-15 38 -27 45 -27 11 0 13 -14 8 -67 -3 -38 -9 -71 -12 -76 -4 -4 -50 -3 -102
3 -148 15 -159 14 -159 -14 0 -60 32 -56 -501 -56 l-489 0 -4 -22 c-2 -13 -11
-83 -20 -157 l-16 -134 38 -46 39 -46 582 0 c577 0 581 0 581 -20 0 -11 -4
-56 -9 -100 -6 -44 -12 -111 -16 -150 -3 -38 -10 -106 -15 -150 -5 -44 -12
-114 -15 -155 -3 -41 -8 -91 -10 -110 -6 -42 -41 -395 -50 -495 -4 -38 -10
-106 -15 -150 -4 -44 -8 -98 -9 -120 -3 -75 -21 -199 -31 -209 -6 -6 -45 -6
-112 2 -156 18 -237 8 -418 -52 l-155 -52 -100 12 c-55 6 -152 16 -215 23
l-115 12 -135 -59 c-157 -69 -150 -54 -105 -218 394 -1436 1611 -2512 3080
-2723 913 -132 1823 67 2593 566 700 453 1248 1157 1511 1939 58 172 104 341
96 353 -2 5 -31 12 -62 16 -32 4 -120 22 -196 41 -75 19 -142 32 -147 29 -5
-3 -49 3 -97 14 -48 10 -144 24 -213 29 -129 11 -265 45 -299 76 -9 8 -55 27
-102 40 -93 27 -258 82 -264 87 -1 2 -8 54 -14 114 -6 61 -14 126 -16 145 -3
19 -14 107 -25 195 -12 88 -23 176 -25 195 -3 19 -19 143 -35 275 -17 132 -38
287 -46 345 -8 58 -17 138 -21 178 l-6 72 538 0 538 0 45 38 c25 20 49 40 54
43 8 5 -24 269 -37 307 -3 9 -107 12 -475 12 l-470 0 0 45 0 45 -37 -5 c-67
-10 -233 -21 -233 -15 0 3 -3 34 -6 70 l-6 65 40 18 c48 21 57 41 53 118 l-2
56 98 6 c54 4 184 9 288 13 105 3 255 10 335 15 80 5 205 12 277 15 l133 7 60
73 c57 70 60 77 76 163 16 88 17 91 44 91 22 0 46 22 130 116 102 116 103 117
125 205 l23 89 -27 -6 c-14 -3 -51 -12 -81 -19 -159 -37 -632 -103 -750 -104
-19 0 -148 -9 -285 -20 -138 -11 -308 -23 -380 -26 -71 -3 -208 -10 -304 -15
-628 -35 -2740 -34 -3525 0 -122 5 -286 12 -366 15 -188 7 -290 12 -540 31
-113 8 -218 15 -235 16 -38 0 -310 33 -435 52 -173 27 -271 45 -461 87 -99 22
-99 22 -99 11z m5241 -834 c5 -7 9 -38 9 -69 0 -62 21 -94 68 -105 15 -3 33
-7 40 -10 8 -2 12 -24 12 -61 l0 -59 -102 4 -103 3 -23 -35 -22 -36 -540 0
-540 0 0 185 0 185 408 2 c224 2 492 4 596 6 149 3 191 1 197 -10z m-1661
-185 l0 -183 -553 0 -553 0 -10 38 c-9 36 -10 37 -54 37 -25 0 -78 -4 -117 -8
l-73 -7 0 70 0 70 31 0 c20 0 40 10 60 29 25 25 29 37 29 83 l0 53 620 0 620
0 0 -182z m1844 -625 c3 -24 8 -74 11 -113 3 -38 16 -191 29 -340 14 -148 30
-328 36 -400 6 -71 13 -150 16 -175 14 -130 44 -446 49 -525 3 -49 8 -100 11
-112 2 -13 2 -23 -1 -23 -18 0 -44 23 -54 48 -9 22 -28 36 -71 54 l-58 26 -30
-30 c-27 -28 -33 -30 -68 -21 -39 9 -44 14 -81 96 -24 52 -65 74 -125 67 l-47
-5 64 -90 c36 -49 65 -93 65 -96 0 -15 -78 -28 -111 -19 -46 14 -45 14 -59
-20 -7 -16 -14 -30 -17 -30 -2 0 -25 11 -52 25 -27 13 -70 29 -97 36 -27 6
-69 24 -94 39 -52 33 -184 75 -200 65 -8 -5 -2 -18 18 -39 16 -17 35 -42 42
-55 12 -23 11 -24 -19 -18 -17 4 -73 12 -123 18 l-91 12 -80 65 c-52 42 -109
78 -168 103 -49 21 -124 58 -167 83 -78 44 -125 57 -257 71 -53 5 -72 2 -159
-29 -55 -20 -103 -36 -107 -36 -5 0 -3 14 3 31 6 16 8 32 6 34 -2 2 -65 -33
-140 -79 -106 -65 -163 -92 -255 -123 -65 -22 -139 -40 -165 -42 -46 -2 -47
-2 -54 34 -6 34 -7 35 -43 29 -20 -3 -49 -10 -66 -14 -16 -5 -81 -21 -144 -35
l-115 -25 -32 31 c-21 21 -39 30 -51 26 -10 -3 -56 -19 -103 -35 -100 -35
-185 -45 -184 -22 2 93 17 341 24 400 5 41 11 131 15 200 3 69 12 229 20 355
8 127 16 273 19 325 3 52 9 146 12 208 l7 112 1618 0 1618 0 5 -42z"/>
<path d="M4477 4989 c7 -7 15 -10 18 -7 3 3 -2 9 -12 12 -14 6 -15 5 -6 -5z"/>
<path d="M5140 4965 c0 -2 18 -14 40 -25 22 -11 40 -18 40 -15 0 2 -18 14 -40
25 -22 11 -40 18 -40 15z"/>
<path d="M5250 4905 c0 -2 18 -14 40 -25 22 -11 40 -18 40 -15 0 2 -18 14 -40
25 -22 11 -40 18 -40 15z"/>
<path d="M5380 4835 c0 -2 18 -14 40 -25 22 -11 40 -18 40 -15 0 2 -18 14 -40
25 -22 11 -40 18 -40 15z"/>
<path d="M5550 4745 c0 -2 18 -14 40 -25 22 -11 40 -18 40 -15 0 2 -18 14 -40
25 -22 11 -40 18 -40 15z"/>
<path d="M5640 4696 c0 -2 7 -7 16 -10 8 -3 12 -2 9 4 -6 10 -25 14 -25 6z"/>
<path d="M5780 4625 c0 -2 18 -14 40 -25 22 -11 40 -18 40 -15 0 2 -18 14 -40
25 -22 11 -40 18 -40 15z"/>
<path d="M5871 4576 c2 -2 15 -9 29 -15 24 -11 24 -11 6 3 -16 13 -49 24 -35
12z"/>
<path d="M6950 4050 c8 -5 20 -10 25 -10 6 0 3 5 -5 10 -8 5 -19 10 -25 10 -5
0 -3 -5 5 -10z"/>
<path d="M7011 4026 c2 -2 15 -9 29 -15 24 -11 24 -11 6 3 -16 13 -49 24 -35
12z"/>
<path d="M7110 3980 c8 -5 20 -10 25 -10 6 0 3 5 -5 10 -8 5 -19 10 -25 10 -5
0 -3 -5 5 -10z"/>
<path d="M7320 3890 c8 -5 20 -10 25 -10 6 0 3 5 -5 10 -8 5 -19 10 -25 10 -5
0 -3 -5 5 -10z"/>
<path d="M7470 3830 c8 -5 20 -10 25 -10 6 0 3 5 -5 10 -8 5 -19 10 -25 10 -5
0 -3 -5 5 -10z"/>
</g>
</svg>
